<svg xmlns="http://www.w3.org/2000/svg" xmlns:xlink="http://www.w3.org/1999/xlink" version="1.1" width="1080" height="1080" viewBox="0 0 1080 1080" xml:space="preserve">
<desc>Created with Fabric.js 3.5.0</desc>
<defs>
</defs>
<rect x="0" y="0" width="100%" height="100%" fill="#F2F2F2" fill-opacity="0"/>
<g transform="matrix(1.9177 0 0 1.9177 540.0125 540.0125)" id="325757">
<g style="" vector-effect="non-scaling-stroke">
		<g transform="matrix(1 0 0 1 0.0005 -156.6455)" id="Layer_1">
<path style="stroke: none; stroke-width: 1; stroke-dasharray: none; stroke-linecap: butt; stroke-dashoffset: 0; stroke-linejoin: miter; stroke-miterlimit: 4; is-custom-font: none; font-file-url: none; fill: rgb(230,233,237); fill-rule: nonzero; opacity: 1;" transform=" translate(-255.9955, -99.3495)" d="M 287.996 0 h -63.992 c -5.891 0 -10.664 4.765 -10.664 10.656 v 177.387 c 0 5.891 4.773 10.656 10.664 10.656 h 63.992 c 5.874 0 10.655 -4.766 10.655 -10.656 V 10.656 C 298.651 4.765 293.87 0 287.996 0 z" stroke-linecap="round"/>
</g>
		<g transform="matrix(1 0 0 1 -0.003 -77.9835)" id="Layer_1">
<path style="stroke: none; stroke-width: 1; stroke-dasharray: none; stroke-linecap: butt; stroke-dashoffset: 0; stroke-linejoin: miter; stroke-miterlimit: 4; is-custom-font: none; font-file-url: none; fill: rgb(101,109,120); fill-rule: nonzero; opacity: 1;" transform=" translate(-255.992, -178.0115)" d="M 351.243 127.966 H 160.756 c -6.242 0 -11.328 5.078 -11.328 11.328 v 77.42 c 0 6.25 5.086 11.343 11.328 11.343 h 190.488 c 6.234 0 11.312 -5.094 11.312 -11.343 v -77.42 C 362.557 133.044 357.478 127.966 351.243 127.966 z" stroke-linecap="round"/>
</g>
		<g transform="matrix(1 0 0 1 -0.0025 2.2815)" id="Layer_1">
<path style="stroke: none; stroke-width: 1; stroke-dasharray: none; stroke-linecap: butt; stroke-dashoffset: 0; stroke-linejoin: miter; stroke-miterlimit: 4; is-custom-font: none; font-file-url: none; fill: rgb(255,206,84); fill-rule: nonzero; opacity: 1;" transform=" translate(-255.9925, -258.2765)" d="M 383.182 159.95 H 128.819 c -6.242 0 -11.328 5.094 -11.328 11.328 v 173.981 c 0 6.25 5.086 11.344 11.328 11.344 h 254.363 c 6.234 0 11.312 -5.094 11.312 -11.344 V 171.277 C 394.493 165.043 389.416 159.95 383.182 159.95 z" stroke-linecap="round"/>
</g>
		<g transform="matrix(1 0 0 1 -85.31 -42.7205)" id="Layer_1">
<path style="stroke: none; stroke-width: 1; stroke-dasharray: none; stroke-linecap: butt; stroke-dashoffset: 0; stroke-linejoin: miter; stroke-miterlimit: 4; is-custom-font: none; font-file-url: none; fill: rgb(101,109,120); fill-rule: nonzero; opacity: 1;" transform=" translate(-170.685, -213.2745)" d="M 163.146 205.73 c -4.164 4.171 -4.164 10.921 0 15.077 c 4.164 4.172 10.914 4.172 15.078 0 c 4.164 -4.156 4.164 -10.906 0 -15.077 C 174.06 201.574 167.31 201.574 163.146 205.73 z" stroke-linecap="round"/>
</g>
		<g transform="matrix(1 0 0 1 -42.654 -42.7205)" id="Layer_1">
<path style="stroke: none; stroke-width: 1; stroke-dasharray: none; stroke-linecap: butt; stroke-dashoffset: 0; stroke-linejoin: miter; stroke-miterlimit: 4; is-custom-font: none; font-file-url: none; fill: rgb(101,109,120); fill-rule: nonzero; opacity: 1;" transform=" translate(-213.341, -213.2745)" d="M 205.802 205.73 c -4.164 4.171 -4.164 10.921 0 15.077 c 4.164 4.172 10.914 4.172 15.078 0 c 4.164 -4.156 4.164 -10.906 0 -15.077 C 216.715 201.574 209.966 201.574 205.802 205.73 z" stroke-linecap="round"/>
</g>
		<g transform="matrix(1 0 0 1 0.001 -42.7205)" id="Layer_1">
<path style="stroke: none; stroke-width: 1; stroke-dasharray: none; stroke-linecap: butt; stroke-dashoffset: 0; stroke-linejoin: miter; stroke-miterlimit: 4; is-custom-font: none; font-file-url: none; fill: rgb(101,109,120); fill-rule: nonzero; opacity: 1;" transform=" translate(-255.996, -213.2745)" d="M 248.457 205.73 c -4.164 4.171 -4.164 10.921 0 15.077 c 4.164 4.172 10.914 4.172 15.078 0 c 4.164 -4.156 4.164 -10.906 0 -15.077 C 259.371 201.574 252.621 201.574 248.457 205.73 z" stroke-linecap="round"/>
</g>
		<g transform="matrix(1 0 0 1 42.6564 -42.7205)" id="Layer_1">
<path style="stroke: none; stroke-width: 1; stroke-dasharray: none; stroke-linecap: butt; stroke-dashoffset: 0; stroke-linejoin: miter; stroke-miterlimit: 4; is-custom-font: none; font-file-url: none; fill: rgb(101,109,120); fill-rule: nonzero; opacity: 1;" transform=" translate(-298.6514, -213.2745)" d="M 291.12 205.73 c -4.171 4.171 -4.171 10.921 0 15.077 c 4.156 4.172 10.906 4.172 15.062 0 c 4.172 -4.156 4.172 -10.906 0 -15.077 C 302.026 201.574 295.276 201.574 291.12 205.73 z" stroke-linecap="round"/>
</g>
		<g transform="matrix(1 0 0 1 85.312 -42.7205)" id="Layer_1">
<path style="stroke: none; stroke-width: 1; stroke-dasharray: none; stroke-linecap: butt; stroke-dashoffset: 0; stroke-linejoin: miter; stroke-miterlimit: 4; is-custom-font: none; font-file-url: none; fill: rgb(101,109,120); fill-rule: nonzero; opacity: 1;" transform=" translate(-341.307, -213.2745)" d="M 348.838 205.73 c -4.156 -4.156 -10.906 -4.156 -15.062 0 c -4.172 4.171 -4.172 10.921 0 15.077 c 4.156 4.172 10.906 4.172 15.062 0 C 353.01 216.652 353.01 209.902 348.838 205.73 z" stroke-linecap="round"/>
</g>
		<g transform="matrix(1 0 0 1 -0.004 -190.325)" id="Layer_1">
<rect style="stroke: none; stroke-width: 1; stroke-dasharray: none; stroke-linecap: butt; stroke-dashoffset: 0; stroke-linejoin: miter; stroke-miterlimit: 4; is-custom-font: none; font-file-url: none; fill: rgb(237,85,100); fill-rule: nonzero; opacity: 1;" x="-42.655" y="-23.015" rx="0" ry="0" width="85.31" height="46.03"/>
</g>
		<g transform="matrix(1 0 0 1 -0.0039 105.0645)" id="Layer_1">
<path style="stroke: none; stroke-width: 1; stroke-dasharray: none; stroke-linecap: butt; stroke-dashoffset: 0; stroke-linejoin: miter; stroke-miterlimit: 4; is-custom-font: none; font-file-url: none; fill: rgb(230,233,237); fill-rule: nonzero; opacity: 1;" transform=" translate(-255.9911, -361.0595)" d="M 369.307 483.928 l 77.842 -191.23 c 1.188 -2.922 1.031 -6.203 -0.438 -8.984 c -1.453 -2.797 -4.062 -4.781 -7.141 -5.469 l -181.285 -39.796 c -1.508 -0.344 -3.07 -0.344 -4.578 0 L 72.421 278.244 c -3.109 0.688 -5.75 2.719 -7.203 5.562 c -1.453 2.828 -1.562 6.156 -0.305 9.078 l 82.358 191.043 h 222.036 V 483.928 z" stroke-linecap="round"/>
</g>
		<g transform="matrix(1 0 0 1 -95.9754 105.068)" id="Layer_1">
<path style="stroke: none; stroke-width: 1; stroke-dasharray: none; stroke-linecap: butt; stroke-dashoffset: 0; stroke-linejoin: miter; stroke-miterlimit: 4; is-custom-font: none; font-file-url: none; fill: rgb(204,209,217); fill-rule: nonzero; opacity: 1;" transform=" translate(-160.0197, -361.063)" d="M 255.996 483.928 v -245.73 c -0.766 0 -1.531 0.078 -2.289 0.25 L 72.421 278.244 c -3.109 0.688 -5.75 2.719 -7.203 5.562 c -1.453 2.828 -1.562 6.156 -0.305 9.078 l 82.358 191.043 h 108.725 V 483.928 z" stroke-linecap="round"/>
</g>
		<!-- <g transform="matrix(1 0 0 1 0.0005 220.003)" id="Layer_1">
<path style="stroke: none; stroke-width: 1; stroke-dasharray: none; stroke-linecap: butt; stroke-dashoffset: 0; stroke-linejoin: miter; stroke-miterlimit: 4; is-custom-font: none; font-file-url: none; fill: rgb(93,156,236); fill-rule: nonzero; opacity: 1;" transform=" translate(-255.9955, -475.998)" d="M 0.063 511.99 h 511.865 v -62.999 l -15.75 -7.859 c -3 -1.5 -6.53 -1.5 -9.53 0 l -16.562 8.281 l -16.562 -8.281 c -3 -1.5 -6.531 -1.5 -9.531 0 l -16.562 8.281 l -16.562 -8.281 c -3 -1.5 -6.531 -1.5 -9.531 0 l -16.562 8.281 l -16.562 -8.281 c -3 -1.5 -6.531 -1.5 -9.531 0 l -16.562 8.281 l -16.562 -8.281 c -3 -1.5 -6.531 -1.5 -9.53 0 l -16.562 8.281 l -16.562 -8.281 c -3 -1.5 -6.531 -1.5 -9.531 0 l -17.378 8.687 l -17.375 -8.688 c -3.008 -1.5 -6.539 -1.5 -9.539 0 l -16.562 8.281 l -16.555 -8.281 c -3.008 -1.5 -6.539 -1.5 -9.539 0 l -16.562 8.281 l -16.554 -8.281 c -3.008 -1.5 -6.539 -1.5 -9.539 0 l -16.562 8.281 l -16.562 -8.281 c -3 -1.5 -6.531 -1.5 -9.531 0 l -16.562 8.281 l -16.562 -8.281 c -3 -1.5 -6.531 -1.5 -9.531 0 l -16.562 8.281 l -16.562 -8.281 c -3 -1.5 -6.531 -1.5 -9.531 0 l -15.437 8.281 L 0.063 511.99 z" stroke-linecap="round"/>
</g> -->
</g>
</g>
</svg>