<svg width="341" height="46" viewBox="0 0 341 46" fill="none" xmlns="http://www.w3.org/2000/svg">
<path d="M34.528 9.08C37.408 9.08 39.568 9.912 41.008 11.576C42.448 13.208 43.168 15.544 43.168 18.584V35H33.616V19.736C33.616 18.648 33.344 17.784 32.8 17.144C32.288 16.472 31.552 16.136 30.592 16.136C29.472 16.136 28.56 16.52 27.856 17.288C27.152 18.056 26.8 19 26.8 20.12V35H17.248V19.736C17.248 18.648 16.976 17.784 16.432 17.144C15.92 16.472 15.184 16.136 14.224 16.136C13.104 16.136 12.192 16.52 11.488 17.288C10.784 18.056 10.432 19 10.432 20.12V35H0.88V9.656H8.704L9.328 13.448C10.288 12.104 11.552 11.048 13.12 10.28C14.72 9.48 16.4 9.08 18.16 9.08C21.968 9.08 24.528 10.536 25.84 13.448C26.832 12.104 28.096 11.048 29.632 10.28C31.2 9.48 32.832 9.08 34.528 9.08ZM66.304 34.232C64.992 37.784 63.376 40.472 61.456 42.296C59.568 44.152 56.912 45.08 53.488 45.08C51.408 45.08 49.568 44.792 47.968 44.216V38.504H51.808C54.208 38.504 55.632 37.336 56.08 35L46 9.656H56.272L61.12 26.504H61.456L65.92 9.656H75.328L66.304 34.232ZM272.687 9.08C277.327 9.08 280.863 10.168 283.295 12.344C285.759 14.52 286.991 17.848 286.991 22.328V23.96H267.983C267.983 25.784 268.383 27.16 269.183 28.088C270.015 29.016 271.311 29.48 273.071 29.48C274.671 29.48 275.839 29.144 276.575 28.472C277.343 27.8 277.727 26.904 277.727 25.784H286.991C286.991 28.856 285.823 31.256 283.487 32.984C281.151 34.712 277.743 35.576 273.263 35.576C268.559 35.576 264.911 34.488 262.319 32.312C259.727 30.104 258.431 26.776 258.431 22.328C258.431 17.976 259.695 14.68 262.223 12.44C264.751 10.2 268.239 9.08 272.687 9.08ZM273.071 15.176C270.063 15.176 268.383 16.6 268.031 19.448H277.343C277.343 18.136 276.959 17.096 276.191 16.328C275.455 15.56 274.415 15.176 273.071 15.176ZM304.703 9.08C308.863 9.08 312.223 9.976 314.783 11.768C317.375 13.528 318.671 16.232 318.671 19.88H309.407C309.407 17 307.839 15.56 304.703 15.56C301.567 15.56 299.999 17.368 299.999 20.984V23.72C299.999 27.304 301.631 29.096 304.895 29.096C308.159 29.096 309.791 27.624 309.791 24.68H318.671C318.671 28.36 317.375 31.096 314.783 32.888C312.223 34.68 308.863 35.576 304.703 35.576C300.255 35.576 296.767 34.456 294.239 32.216C291.711 29.976 290.447 26.68 290.447 22.328C290.447 17.976 291.711 14.68 294.239 12.44C296.767 10.2 300.255 9.08 304.703 9.08ZM340.51 9.656V16.136H335.134V25.784C335.134 26.936 335.326 27.784 335.71 28.328C336.094 28.84 336.798 29.096 337.822 29.096H340.51V34.712C339.742 34.968 338.75 35.176 337.534 35.336C336.318 35.496 335.262 35.576 334.366 35.576C331.55 35.576 329.374 35.064 327.838 34.04C326.334 33.016 325.582 31.272 325.582 28.808V16.136H322.03V9.656H325.966L328.03 1.976H335.134V9.656H340.51Z" fill="#2E838C"/>
<path d="M94.6398 1.4C99.5358 1.4 103.408 2.632 106.256 5.096C109.104 7.528 110.528 11.016 110.528 15.56H100.4C100.4 13.64 99.8878 12.12 98.8638 11C97.8718 9.88 96.4478 9.32 94.5918 9.32C92.4478 9.32 90.8638 9.992 89.8398 11.336C88.8478 12.68 88.3518 14.552 88.3518 16.952V20.024C88.3518 22.392 88.8478 24.264 89.8398 25.64C90.8638 26.984 92.4158 27.656 94.4958 27.656C96.5438 27.656 98.0958 27.128 99.1518 26.072C100.208 25.016 100.736 23.528 100.736 21.608H110.528C110.528 26.12 109.136 29.576 106.352 31.976C103.6 34.376 99.6958 35.576 94.6398 35.576C89.0078 35.576 84.7358 34.136 81.8238 31.256C78.9438 28.376 77.5038 24.12 77.5038 18.488C77.5038 12.856 78.9438 8.6 81.8238 5.72C84.7358 2.84 89.0078 1.4 94.6398 1.4ZM128.111 9.08C131.983 9.08 135.135 9.736 137.567 11.048C139.999 12.328 141.215 14.424 141.215 17.336V27.224C141.215 27.768 141.343 28.216 141.599 28.568C141.855 28.92 142.239 29.096 142.751 29.096H144.479V34.616C144.383 34.68 144.127 34.792 143.711 34.952C143.327 35.08 142.767 35.208 142.031 35.336C141.295 35.496 140.447 35.576 139.487 35.576C137.631 35.576 136.095 35.304 134.879 34.76C133.695 34.184 132.879 33.4 132.431 32.408C131.215 33.368 129.855 34.136 128.351 34.712C126.847 35.288 125.087 35.576 123.071 35.576C117.119 35.576 114.143 33.208 114.143 28.472C114.143 26.008 114.799 24.136 116.111 22.856C117.455 21.544 119.375 20.648 121.871 20.168C124.367 19.688 127.631 19.448 131.663 19.448V18.2C131.663 17.208 131.311 16.456 130.607 15.944C129.935 15.432 129.055 15.176 127.967 15.176C126.975 15.176 126.111 15.352 125.375 15.704C124.671 16.056 124.319 16.616 124.319 17.384V17.576H114.911C114.879 17.416 114.863 17.192 114.863 16.904C114.863 14.504 115.999 12.6 118.271 11.192C120.575 9.784 123.855 9.08 128.111 9.08ZM131.663 23.96C128.943 23.96 126.927 24.264 125.615 24.872C124.335 25.448 123.695 26.232 123.695 27.224C123.695 28.824 124.783 29.624 126.959 29.624C128.207 29.624 129.295 29.288 130.223 28.616C131.183 27.944 131.663 27.112 131.663 26.12V23.96ZM163.007 9.032C163.743 9.032 164.399 9.128 164.975 9.32C165.551 9.48 165.839 9.576 165.839 9.608V17.624H162.767C160.783 17.624 159.343 18.136 158.447 19.16C157.583 20.184 157.151 21.704 157.151 23.72V35H147.599V9.656H155.423L156.047 13.496C156.623 12.024 157.535 10.92 158.783 10.184C160.031 9.416 161.439 9.032 163.007 9.032ZM199.887 1.976C211.439 1.976 217.215 7.48 217.215 18.488C217.215 29.496 211.439 35 199.887 35H185.583V1.976H199.887ZM196.191 27.08H199.695C204.143 27.08 206.367 24.696 206.367 19.928V17.048C206.367 12.28 204.143 9.896 199.695 9.896H196.191V27.08ZM222.607 6.68V0.199999H232.159V6.68H222.607ZM222.607 35V9.656H232.159V35H222.607ZM253.663 9.032C254.399 9.032 255.055 9.128 255.631 9.32C256.207 9.48 256.495 9.576 256.495 9.608V17.624H253.423C251.439 17.624 249.999 18.136 249.103 19.16C248.239 20.184 247.807 21.704 247.807 23.72V35H238.255V9.656H246.079L246.703 13.496C247.279 12.024 248.191 10.92 249.439 10.184C250.687 9.416 252.095 9.032 253.663 9.032Z" fill="#050A30"/>
</svg>
